<svg id="Capa_1" enable-background="new 0 0 512 512" height="512" viewBox="0 0 512 512" width="512" xmlns="http://www.w3.org/2000/svg"><g><g><g><path d="m309.295 406.924c8.272 0 13.661-8.934 9.559-16.116-.029-.052-.059-.103-.089-.155-7.149-12.382-20.191-19.23-33.538-19.065-2.186-16.607-11.517-30.961-24.809-39.865 8.856-16.276 10.146-36.393 1.714-54.475-11.07-23.739-35.594-36.902-60.259-34.66-10.248-20.916-32.214-35.046-57.347-33.813-30.029 1.473-54.659 25.281-57.184 55.239-.651 7.723.19 15.156 2.212 22.086-8.161 6.991-13.347 17.35-13.347 28.938 0 3.058.37 6.028 1.05 8.878-22.218 5.715-39.175 24.502-42.225 47.672-13.346-.165-26.389 6.683-33.538 19.065-.03.052-.059.103-.089.155-4.102 7.182 1.287 16.116 9.559 16.116z" fill="#dad2ff"/></g><path d="m318.849 390.809c-.02-.05-.05-.11-.08-.16-7.15-12.38-20.2-19.23-33.54-19.06-2.19-16.61-11.52-30.96-24.81-39.87 8.86-16.27 10.14-36.39 1.71-54.47-4.06-8.7-9.93-15.99-16.95-21.6-.858 15.755-4.383 30.801-10.132 44.692-5.9-6.38-14.338-10.378-23.712-10.378-17.837 0-32.296 14.459-32.296 32.296 0 5.511 1.383 10.697 3.817 15.236-8.988 2.248-15.867 9.805-17.12 19.147-10.09-2.556-20.973 2.048-25.956 11.694-2.222 4.301-2.944 8.979-2.364 13.442-9.276 1.986-18.897 3.04-28.766 3.04-26.49 0-51.22-7.53-72.16-20.57-.64 2.39-1.13 4.84-1.46 7.34-13.34-.17-26.39 6.68-33.53 19.06-.03.05-.06.11-.09.16-4.11 7.18 1.28 16.11 9.56 16.11h298.33c8.269.001 13.659-8.929 9.549-16.109z" fill="#c3b9f9"/><g><path d="m77.315 367.177c-1.845 0-3.494 1.104-4.247 2.789-1.615 3.614-5.237 6.14-9.444 6.14-4.208 0-7.83-2.526-9.445-6.14-.753-1.685-2.401-2.789-4.247-2.789-3.381 0-5.595 3.49-4.212 6.575 3.066 6.839 9.936 11.615 17.903 11.615s14.837-4.776 17.903-11.615c1.383-3.084-.831-6.575-4.211-6.575z" fill="#eae9ff"/></g><path d="m318.849 390.809c-.02-.05-.05-.11-.08-.16-7.15-12.38-20.2-19.23-33.54-19.06-1.02-7.75-3.59-15-7.4-21.43-2.529 4.698-5.386 9.192-8.529 13.463-4.072-6.813-11.518-11.377-20.032-11.377-12.881 0-23.324 10.442-23.324 23.324 0 7.662 3.695 14.461 9.4 18.713-9.679 5.698-20.274 10.007-31.516 12.638h105.47c8.271-.001 13.661-8.931 9.551-16.111z" fill="#ab97f2"/></g><path d="m79.541 391.807c90.614 90.614 238.025 89.817 327.64-2.39 87.345-89.872 86.265-234.263-2.348-322.885-20.478-20.48-43.856-36.292-68.814-47.435-7.21-3.219-13.439 5.962-7.845 11.535.094.094.188.188.283.282 77.794 77.794 78.566 203.452 2.294 282.194-78.052 80.58-205.77 82.159-285.701 3.441-.432-.426-.862-.853-1.29-1.282-5.586-5.6-14.787.716-11.555 7.936 11.137 24.879 26.915 48.183 47.336 68.604z" fill="#ffaf40"/><path d="m407.18 389.419c-89.61 92.2-237.03 93-327.64 2.39-20.42-20.42-36.2-43.73-47.33-68.61-3.24-7.21 5.96-13.53 11.55-7.93.43.43.86.85 1.29 1.28 27.98 27.55 61.81 45.27 97.32 53.2 30.14 16.65 64.8 26.12 101.67 26.12 116.36 0 210.69-94.33 210.69-210.69 0-23.05-3.7-45.23-10.55-65.99 46.79 86.2 34.62 196.54-37 270.23z" fill="#ff993a"/><g><g><g><path d="m501.036 436.924c8.272 0 13.661-8.934 9.559-16.116-.029-.052-.059-.103-.089-.155-7.149-12.382-20.191-19.23-33.538-19.065-2.186-16.607-11.517-30.961-24.809-39.865 8.856-16.276 10.146-36.393 1.714-54.475-11.069-23.739-35.594-36.902-60.259-34.66-10.248-20.916-32.214-35.046-57.347-33.813-30.029 1.473-54.659 25.281-57.184 55.239-.651 7.723.19 15.156 2.212 22.086-8.161 6.991-13.347 17.35-13.347 28.938 0 3.058.37 6.028 1.05 8.878-22.218 5.715-39.175 24.502-42.225 47.672-13.346-.165-26.389 6.683-33.538 19.065-.03.052-.059.103-.089.155-4.102 7.182 1.287 16.116 9.559 16.116z" fill="#eae9ff"/></g><path d="m510.59 420.809c-.02-.05-.05-.11-.08-.16-7.15-12.38-20.2-19.23-33.54-19.06-2.19-16.61-11.52-30.96-24.81-39.87 8.86-16.27 10.14-36.39 1.71-54.47-4.06-8.7-9.93-15.99-16.95-21.6-.858 15.755-4.383 30.801-10.132 44.692-5.9-6.38-14.338-10.378-23.712-10.378-17.837 0-32.296 14.459-32.296 32.296 0 5.511 1.383 10.697 3.817 15.236-8.988 2.248-15.867 9.805-17.12 19.147-10.09-2.556-20.973 2.048-25.956 11.694-2.222 4.301-2.944 8.979-2.364 13.442-9.276 1.986-18.897 3.04-28.766 3.04-26.49 0-51.22-7.53-72.16-20.57-.64 2.39-1.13 4.84-1.46 7.34-13.34-.17-26.39 6.68-33.53 19.06-.03.05-.06.11-.09.16-4.11 7.18 1.28 16.11 9.56 16.11h298.33c8.269.001 13.659-8.929 9.549-16.109z" fill="#dad2ff"/><path d="m510.59 420.809c-.02-.05-.05-.11-.08-.16-7.15-12.38-20.2-19.23-33.54-19.06-1.02-7.75-3.59-15-7.4-21.43-2.529 4.698-5.386 9.192-8.529 13.463-4.072-6.813-11.518-11.377-20.032-11.377-12.881 0-23.324 10.442-23.324 23.324 0 7.662 3.695 14.461 9.4 18.713-9.679 5.698-20.274 10.007-31.516 12.638h105.47c8.271-.001 13.661-8.931 9.551-16.111z" fill="#c3b9f9"/></g><g><path d="m369.814 320.686c-1.845 0-3.494 1.104-4.247 2.789-1.615 3.614-5.237 6.14-9.444 6.14-4.208 0-7.83-2.526-9.445-6.14-.753-1.685-2.401-2.789-4.247-2.789-3.381 0-5.595 3.49-4.212 6.575 3.066 6.839 9.936 11.615 17.903 11.615s14.837-4.776 17.903-11.615c1.384-3.085-.83-6.575-4.211-6.575z" fill="#c3b9f9"/></g><g><path d="m399.774 358.082c-1.845 0-3.494 1.104-4.247 2.789-1.615 3.614-5.237 6.14-9.444 6.14-4.208 0-7.83-2.526-9.445-6.14-.753-1.685-2.401-2.789-4.247-2.789-3.381 0-5.595 3.49-4.212 6.575 3.066 6.839 9.936 11.615 17.903 11.615 7.968 0 14.837-4.776 17.903-11.615 1.384-3.084-.83-6.575-4.211-6.575z" fill="#c3b9f9"/></g><g><path d="m314.099 374.064c-1.845 0-3.494 1.104-4.247 2.789-1.615 3.614-5.237 6.14-9.444 6.14-4.208 0-7.83-2.526-9.445-6.14-.753-1.685-2.401-2.789-4.247-2.789-3.381 0-5.595 3.49-4.212 6.575 3.066 6.839 9.936 11.615 17.903 11.615s14.837-4.776 17.903-11.615c1.384-3.084-.83-6.575-4.211-6.575z" fill="#fafaff"/></g></g><g><path d="m187.111 296.51c-1.845 0-3.494 1.104-4.247 2.789-1.615 3.614-5.237 6.14-9.444 6.14-4.208 0-7.83-2.526-9.445-6.14-.753-1.685-2.401-2.789-4.247-2.789-3.381 0-5.595 3.49-4.212 6.575 3.066 6.839 9.936 11.615 17.903 11.615 7.968 0 14.837-4.776 17.903-11.615 1.384-3.085-.83-6.575-4.211-6.575z" fill="#eae9ff"/></g><g><path d="m142.655 322.622c-1.845 0-3.494 1.104-4.247 2.789-1.615 3.614-5.237 6.14-9.444 6.14-4.208 0-7.83-2.526-9.445-6.14-.753-1.685-2.401-2.789-4.247-2.789-3.381 0-5.595 3.49-4.212 6.575 3.066 6.839 9.936 11.615 17.903 11.615s14.837-4.776 17.903-11.615c1.384-3.085-.83-6.575-4.211-6.575z" fill="#ab97f2"/></g><g><path d="m232.912 329.781c-1.845 0-3.494 1.104-4.247 2.789-1.615 3.614-5.237 6.14-9.444 6.14-4.208 0-7.83-2.526-9.445-6.14-.753-1.685-2.401-2.789-4.247-2.789-3.381 0-5.595 3.49-4.212 6.575 3.066 6.839 9.936 11.615 17.903 11.615 7.968 0 14.837-4.776 17.903-11.615 1.383-3.085-.831-6.575-4.211-6.575z" fill="#dad2ff"/></g><g><path d="m98.359 288.722c11.019 3.28 21.558-6.27 19.452-17.572-.407-2.183-.636-3.855-.571-4.62 1.27-15.1 13.63-27.05 28.76-27.79.52-.03 1.05-.04 1.57-.04 4.481 0 8.782.961 12.674 2.738 5.779 2.638 12.611 1.226 17.144-3.225.071-.07.143-.14.214-.21 7.101-6.969 5.24-18.934-3.711-23.277-8.805-4.272-18.803-6.467-29.361-5.946-30.03 1.47-54.66 25.28-57.19 55.23-.339 4.03-.273 7.979.154 11.818.678 6.085 4.996 11.147 10.865 12.894z" fill="#eae9ff"/><path d="m121.922 252.746c3.178-4.955 7.752-8.928 13.149-11.365 5.381-2.43 8.918-7.691 8.918-13.595v-.344c0-10.612-10.885-17.936-20.598-13.662-11.157 4.91-20.594 13.113-27.04 23.374-5.237 8.335-.845 19.41 8.642 22.036.096.027.193.053.289.08 6.389 1.766 13.062-.946 16.64-6.524z" fill="#fafaff"/><path d="m64.59 376.919.19-1.42" fill="#dad2ff"/></g><g><path d="m344.526 258.375c0 5.644 3.091 10.935 8.166 13.405 5.967 2.903 10.912 7.748 13.978 14.01 5.475 11.167 17.269 17.8 29.655 16.681h.006c.9-.09 1.82-.13 2.72-.13 2.397 0 4.753.286 7.028.832 6.624 1.588 13.487-1.436 16.669-7.459l.141-.267c4.508-8.535-.165-19.102-9.543-21.384-6.391-1.555-13.057-2.078-19.734-1.472-5.85-11.952-15.531-21.683-27.441-27.6-9.957-4.946-21.645 2.269-21.645 13.384z" fill="#fafaff"/></g><g><path d="m353.193 157.472-9.189-2.849c-13.268-4.114-23.657-14.502-27.771-27.771l-2.849-9.189c-.278-.897-1.108-1.508-2.047-1.508-.939 0-1.769.611-2.047 1.508l-2.849 9.189c-4.114 13.269-14.502 23.657-27.771 27.771l-9.189 2.849c-.897.278-1.508 1.108-1.508 2.047 0 .939.611 1.769 1.508 2.047l9.189 2.849c13.268 4.114 23.657 14.502 27.771 27.771l2.849 9.189c.278.897 1.108 1.508 2.047 1.508.939 0 1.769-.611 2.047-1.508l2.849-9.189c4.114-13.269 14.502-23.657 27.771-27.771l9.189-2.849c.897-.278 1.508-1.108 1.508-2.047 0-.939-.611-1.769-1.508-2.047z" fill="#ffe059"/><path d="m354.698 159.515c0 .94-.61 1.77-1.51 2.05l-9.18 2.85c-13.27 4.11-23.66 14.5-27.77 27.77l-2.85 9.19c-.28.9-1.11 1.51-2.05 1.51s-1.77-.61-2.05-1.51l-2.85-9.19c-1.39-4.5-3.51-8.67-6.23-12.38 14.45-2.57 25.41-15.2 25.41-30.38 0-2.53-.3-4.99-.88-7.35 5.06 5.8 11.69 10.2 19.27 12.55l9.18 2.85c.9.28 1.51 1.1 1.51 2.04z" fill="#ffc751"/></g><g><path d="m170.819 434.442-9.189-2.849c-13.269-4.114-23.657-14.502-27.771-27.771l-2.849-9.189c-.278-.897-1.108-1.508-2.047-1.508-.939 0-1.769.611-2.047 1.508l-2.849 9.189c-4.114 13.269-14.502 23.657-27.771 27.771l-9.189 2.849c-.897.278-1.508 1.108-1.508 2.047 0 .939.611 1.769 1.508 2.047l9.189 2.849c13.269 4.114 23.657 14.502 27.771 27.771l2.849 9.189c.278.897 1.108 1.508 2.047 1.508.939 0 1.769-.611 2.047-1.508l2.849-9.189c4.114-13.269 14.502-23.657 27.771-27.771l9.189-2.849c.897-.278 1.508-1.108 1.508-2.047 0-.939-.611-1.769-1.508-2.047z" fill="#dad2ff"/><path d="m172.324 436.485c0 .94-.61 1.77-1.51 2.05l-9.18 2.85c-13.27 4.11-23.66 14.5-27.77 27.77l-2.85 9.19c-.28.9-1.11 1.51-2.05 1.51s-1.77-.61-2.05-1.51l-2.85-9.19c-1.39-4.5-3.51-8.67-6.23-12.38 14.45-2.57 25.41-15.2 25.41-30.38 0-2.53-.3-4.99-.88-7.35 5.06 5.8 11.69 10.2 19.27 12.55l9.18 2.85c.9.28 1.51 1.1 1.51 2.04z" fill="#c3b9f9"/></g><g><path d="m323.942 277.489-9.189-2.849c-13.268-4.114-23.657-14.502-27.771-27.771l-2.849-9.189c-.278-.897-1.108-1.508-2.047-1.508-.939 0-1.769.611-2.047 1.508l-2.849 9.189c-4.114 13.269-14.502 23.657-27.771 27.771l-9.189 2.849c-.897.278-1.508 1.108-1.508 2.047 0 .939.611 1.769 1.508 2.047l9.189 2.849c13.269 4.114 23.657 14.502 27.771 27.771l2.849 9.189c.278.897 1.108 1.508 2.047 1.508.939 0 1.769-.611 2.047-1.508l2.849-9.189c4.114-13.269 14.502-23.657 27.771-27.771l9.189-2.849c.897-.278 1.508-1.108 1.508-2.047 0-.94-.611-1.769-1.508-2.047z" fill="#ffe059"/><path d="m325.447 279.531c0 .94-.61 1.77-1.51 2.05l-9.18 2.85c-13.27 4.11-23.66 14.5-27.77 27.77l-2.85 9.19c-.28.9-1.11 1.51-2.05 1.51s-1.77-.61-2.05-1.51l-2.85-9.19c-1.39-4.5-3.51-8.67-6.23-12.38 14.45-2.57 25.41-15.2 25.41-30.38 0-2.53-.3-4.99-.88-7.35 5.06 5.8 11.69 10.2 19.27 12.55l9.18 2.85c.9.28 1.51 1.1 1.51 2.04z" fill="#ffc751"/></g><g><g><g><g><g><path d="m214.832 471.669c1.572-1.036 1.572-3.335 0-4.371-4.058-2.673-7.909-5.783-11.486-9.332s-6.71-7.372-9.404-11.398c-1.044-1.56-3.361-1.56-4.404 0-2.693 4.027-5.827 7.849-9.404 11.398s-7.428 6.659-11.486 9.332c-1.572 1.036-1.572 3.335 0 4.371 4.058 2.673 7.909 5.783 11.486 9.332s6.71 7.372 9.404 11.398c1.044 1.56 3.361 1.56 4.404 0 2.693-4.027 5.827-7.849 9.404-11.398s7.429-6.659 11.486-9.332z" fill="#dad2ff"/></g></g><g><g><path d="m214.833 471.668c-4.057 2.673-7.908 5.782-11.486 9.333s-6.711 7.372-9.404 11.399c-1.044 1.558-3.359 1.558-4.403 0-2.694-4.026-5.826-7.848-9.404-11.399-.466-.462-.938-.917-1.417-1.366.632.053 1.27.079 1.915.079 12.277 0 22.287-9.676 22.699-21.761l.013.013c3.578 3.551 7.429 6.66 11.486 9.333 1.571 1.036 1.571 3.332.001 4.369z" fill="#c3b9f9"/></g></g></g></g></g><g><g><g><g><g><path d="m251.16 192.95c1.572-1.036 1.572-3.335 0-4.371-4.058-2.673-7.909-5.783-11.486-9.332s-6.71-7.372-9.404-11.398c-1.044-1.56-3.361-1.56-4.404 0-2.693 4.027-5.827 7.849-9.404 11.398s-7.428 6.659-11.486 9.332c-1.572 1.036-1.572 3.335 0 4.371 4.058 2.673 7.909 5.783 11.486 9.332s6.71 7.372 9.404 11.398c1.044 1.56 3.361 1.56 4.404 0 2.693-4.027 5.827-7.849 9.404-11.398s7.428-6.659 11.486-9.332z" fill="#dad2ff"/></g></g><g><g><path d="m251.161 192.948c-4.057 2.673-7.908 5.782-11.486 9.333s-6.711 7.372-9.404 11.399c-1.044 1.558-3.359 1.558-4.403 0-2.694-4.026-5.826-7.848-9.404-11.399-.466-.462-.938-.917-1.417-1.366.632.053 1.27.079 1.915.079 12.277 0 22.287-9.676 22.699-21.761l.013.013c3.578 3.551 7.429 6.66 11.486 9.333 1.571 1.036 1.571 3.333.001 4.369z" fill="#c3b9f9"/></g></g></g></g></g><g><g><g><g><g><path d="m495.089 257.76c1.572-1.036 1.572-3.335 0-4.371-4.058-2.673-7.909-5.783-11.486-9.332s-6.71-7.372-9.404-11.398c-1.043-1.56-3.361-1.56-4.404 0-2.693 4.027-5.827 7.849-9.404 11.398s-7.428 6.659-11.486 9.332c-1.572 1.036-1.572 3.335 0 4.371 4.058 2.673 7.909 5.783 11.486 9.332s6.71 7.372 9.404 11.398c1.044 1.56 3.361 1.56 4.404 0 2.693-4.027 5.827-7.849 9.404-11.398s7.428-6.659 11.486-9.332z" fill="#dad2ff"/></g></g><g><g><path d="m495.09 257.759c-4.057 2.673-7.908 5.782-11.486 9.333s-6.711 7.372-9.404 11.399c-1.044 1.558-3.359 1.558-4.403 0-2.694-4.026-5.826-7.848-9.404-11.399-.466-.462-.938-.917-1.417-1.366.632.053 1.27.079 1.915.079 12.277 0 22.287-9.676 22.699-21.761.007.007.007.007.013.013 3.578 3.551 7.429 6.66 11.486 9.333 1.571 1.035 1.571 3.332.001 4.369z" fill="#c3b9f9"/></g></g></g></g></g><path d="m395.251 246.596.356.044c8.575 1.069 16.688-4.317 18.901-12.67 5.345-20.17 8.033-41.175 7.872-62.582-.05-6.33-.35-12.62-.88-18.87-2.505-19.386-5.885-35.422-9.639-48.649-2.984-10.515-14.736-15.788-24.593-11.064-7.721 3.7-11.454 12.505-8.921 20.684 11.21 36.198 11.968 74.935 2.276 111.475-2.692 10.149 4.21 20.334 14.628 21.632z" fill="#ffc751"/><path d="m404.628 171.077c9.922 0 17.722-8.486 16.888-18.374l-.016-.184c-1.468-11.36-3.236-21.569-5.204-30.737-2.1-9.782-12.058-15.724-21.675-12.964-8.783 2.521-14.092 11.441-12.104 20.36 1.866 8.37 3.192 16.837 3.979 25.344.867 9.377 8.715 16.555 18.132 16.555z" fill="#ffe059"/></g></svg>